<svg xmlns="http://www.w3.org/2000/svg" height="24px" viewBox="0 0 24 24" width="24px" fill="#FFFFFF">
  <path d="M10.6 15.4c-.9 0-1.6-.2-2.1-.5-.5-.3-.8-.8-.8-1.4 0-.4.1-.7.4-.9.3-.2.6-.3 1-.3.5 0 .9.2 1.1.5l.9-.9c-.6-.6-1.4-.9-2.3-.9-1 0-1.8.3-2.4.8-.6.5-.9 1.2-.9 2.1 0 1 .4 1.8 1.1 2.3.7.5 1.7.8 2.9.8 1.3 0 2.3-.3 3.1-.9.8-.6 1.2-1.5 1.2-2.6v-6.4h-1.4v2.9c-.4-.4-.9-.6-1.5-.6zm8.1-1.1c-.5.7-1.3 1.1-2.4 1.1-.8 0-1.4-.2-1.9-.5-.5-.3-.7-.8-.7-1.3 0-.6.3-1 .8-1.3.5-.3 1.3-.5 2.3-.5h1.1c0-.5-.2-.8-.5-1.1-.3-.2-.8-.4-1.4-.4-.7 0-1.3.2-1.8.5l-.6-1.1c.7-.4 1.6-.6 2.6-.6 1.1 0 1.9.3 2.5.8.6.5.8 1.2.8 2.1v4.3h-1.3v-.9zm-.7-1.6h-.9c-1.2 0-1.8.3-1.8.9 0 .3.1.5.4.7.3.2.7.2 1.2.2.6 0 1.1-.1 1.4-.4.4-.3.5-.6.5-1.1v-.3h-.8zM12 2C6.5 2 2 6.5 2 12s4.5 10 10 10 10-4.5 10-10S17.5 2 12 2z"/>
</svg>
